<svg xmlns="http://www.w3.org/2000/svg" viewBox="0 0 424.7 493.5">
  <linearGradient id="a" x1="-94" x2="337" y1="-247" y2="463" gradientUnits="userSpaceOnUse">
    <stop offset="0" stop-color="#e6e7e8"/>
    <stop offset="1" stop-color="#94a4a5"/>
  </linearGradient>
  <path fill="url(#a)" d="M424.7 122.6v270.2L250.4 493.5V363.6l21 65.4 112.4-59.8v-223l-171.4-99-171.5 99v223L153.3 429l21-65.4v129.9L0 392.8V122.6L212.4 0Z"/>

  <linearGradient id="b" x1="140" x2="553" y1="200" y2="531" gradientUnits="userSpaceOnUse">
    <stop offset="0" stop-color="#7f8b8c"/>
    <stop offset="1" stop-color="#414042"/>
  </linearGradient>
  <path fill="url(#b)" d="M212.4 26.8 401.5 136v243.4l-123 71.2-7.1-21.6 107.9-62.4V148.8L212.4 52.4l-167 96.4v217.8L153.3 429l-7 21.6-123.1-71.2V136Z"/>

  <!-- Contract / document icon (replaces rocket) -->
  <g transform="translate(212 220) scale(1.2) translate(-212 -220)">
    <!-- Page body with folded corner -->
    <path fill="#28b9f8" d="M152 120H242L272 150V320H152Z"/>
    <!-- Fold -->
    <path fill="#1b97e6" d="M242 120V150H272Z"/>

    <!-- Text lines -->
    <rect x="168" y="175" width="88" height="10" rx="5" fill="#0a6ccf"/>
    <rect x="168" y="200" width="88" height="10" rx="5" fill="#0a6ccf"/>
    <rect x="168" y="225" width="70" height="10" rx="5" fill="#0a6ccf"/>

    <!-- Signature area -->
    <rect x="168" y="270" width="88" height="8" rx="4" fill="#0a6ccf" opacity="0.65"/>
  </g>
</svg>
